<svg width="513" height="412" viewBox="0 0 513 412" fill="none" xmlns="http://www.w3.org/2000/svg">
<path d="M359.211 425.885C394.272 405.644 422.546 375.465 440.461 339.16C458.375 302.855 465.126 262.055 459.859 221.914C454.593 181.774 437.546 144.096 410.873 113.641C384.2 83.186 349.098 61.3212 310.002 50.8096C303.445 49.0454 297.858 44.7488 294.47 38.8652C291.081 32.9815 290.169 25.9927 291.933 19.4362C293.697 12.8797 297.994 7.29256 303.877 3.90394C309.761 0.515324 316.75 -0.397265 323.306 1.36701C355.743 10.0522 386.148 25.0527 412.778 45.509C439.407 65.9653 461.739 91.4753 478.492 120.577C549.174 243.002 507.231 399.536 384.806 470.218C262.382 540.9 105.848 498.956 35.1658 376.532C18.3396 347.472 7.41301 315.377 3.01221 282.087C-1.38862 248.797 0.822852 214.966 9.51981 182.532C11.2702 175.971 15.5548 170.375 21.4313 166.974C27.3078 163.573 34.2947 162.646 40.8549 164.396C47.4151 166.146 53.0113 170.431 56.4124 176.308C59.8135 182.184 60.7408 189.171 58.9905 195.731C48.5459 234.845 49.9303 276.177 62.9685 314.504C76.0067 352.831 100.114 386.433 132.243 411.064C164.372 435.695 203.082 450.249 243.48 452.887C283.878 455.525 324.151 446.128 359.211 425.885Z" fill="url(#paint0_linear_1_3012)" fill-opacity="0.5"/>
<defs>
<linearGradient id="paint0_linear_1_3012" x1="384.806" y1="470.218" x2="162.654" y2="85.4391" gradientUnits="userSpaceOnUse">
<stop stop-color="white"/>
<stop offset="1" stop-color="white" stop-opacity="0"/>
</linearGradient>
</defs>
</svg>
